<?xml version="1.0" encoding="UTF-8"?>
<!DOCTYPE svg PUBLIC "-//W3C//DTD SVG 1.0//EN" "http://www.w3.org/TR/2001/REC-SVG-20010904/DTD/svg10.dtd">
<!-- Creator: CorelDRAW X6 -->
<svg xmlns="http://www.w3.org/2000/svg" xml:space="preserve" width="150mm" height="140mm" version="1.0" style="shape-rendering:geometricPrecision; text-rendering:geometricPrecision; image-rendering:optimizeQuality; fill-rule:evenodd; clip-rule:evenodd"
viewBox="0 0 15000 14000"
 xmlns:xlink="http://www.w3.org/1999/xlink">
 <defs>
  <style type="text/css">
   <![CDATA[
    .str1 {stroke:#9DBB61;stroke-width:25.4;stroke-linecap:round;stroke-linejoin:round}
    .str0 {stroke:red;stroke-width:25.4;stroke-linecap:round;stroke-linejoin:round}
    .str2 {stroke:black;stroke-width:25.4;stroke-linecap:round;stroke-linejoin:round}
    .fil3 {fill:none}
    .fil0 {fill:none;fill-rule:nonzero}
    .fil5 {fill:#9DBB61}
    .fil1 {fill:red}
    .fil7 {fill:white}
    .fil6 {fill:#9DBB61;fill-rule:nonzero}
    .fil2 {fill:red;fill-rule:nonzero}
    .fil4 {fill:black;fill-rule:nonzero}
   ]]>
  </style>
 </defs>
 <g id="Ebene_x0020_1">
  <metadata id="CorelCorpID_0Corel-Layer"/>
  <polyline class="fil0 str0" points="7710,12269 7710,12850 4710,12850 4710,11850 "/>
  <polygon class="fil1" points="7557,12307 7710,11850 7862,12307 "/>
  <path class="fil2" d="M4957 12558l49 -8c3,20 11,35 23,45 13,11 31,16 53,16 23,0 40,-5 51,-14 11,-9 17,-20 17,-33 0,-11 -5,-20 -15,-26 -7,-5 -24,-10 -51,-17 -36,-9 -62,-17 -76,-24 -14,-6 -24,-16 -32,-28 -7,-11 -10,-24 -10,-39 0,-13 3,-25 8,-36 6,-11 15,-20 25,-28 8,-5 18,-10 31,-14 14,-4 28,-6 43,-6 23,0 43,3 61,10 17,7 30,16 38,27 8,11 14,27 17,46l-48 6c-3,-15 -9,-27 -20,-35 -10,-9 -25,-13 -44,-13 -23,0 -39,4 -49,11 -10,8 -14,16 -14,26 0,7 1,13 6,18 4,5 10,10 19,13 5,2 19,6 43,13 35,9 60,17 74,23 14,6 24,14 32,26 8,11 12,25 12,42 0,17 -4,32 -14,47 -10,14 -24,26 -42,34 -18,8 -39,11 -62,11 -38,0 -67,-7 -87,-23 -20,-16 -32,-39 -38,-70z"/>
  <path id="1" class="fil2" d="M5259 12298l0 -57 50 0 0 57 -50 0zm0 347l0 -293 50 0 0 293 -50 0z"/>
  <path id="2" class="fil2" d="M5584 12550l52 7c-8,30 -23,53 -45,70 -22,16 -50,24 -84,24 -43,0 -76,-13 -101,-39 -25,-26 -38,-63 -38,-111 0,-49 13,-87 38,-114 25,-27 58,-41 98,-41 40,0 71,13 96,40 25,27 37,64 37,112 0,3 0,8 0,13l-218 0c2,33 11,57 27,74 16,17 37,26 61,26 18,0 34,-5 47,-15 13,-9 23,-24 30,-46zm-162 -79l163 0c-2,-25 -9,-43 -19,-56 -16,-19 -36,-28 -61,-28 -23,0 -42,7 -58,23 -15,15 -24,35 -25,61z"/>
  <path id="3" class="fil2" d="M5698 12645l0 -404 50 0 0 146c23,-27 52,-41 87,-41 22,0 41,4 57,13 15,8 27,20 34,35 7,15 10,37 10,66l0 185 -50 0 0 -185c0,-25 -5,-43 -16,-54 -10,-11 -25,-17 -45,-17 -15,0 -28,4 -41,11 -13,8 -22,18 -28,31 -5,13 -8,31 -8,54l0 160 -50 0z"/>
  <path id="4" class="fil2" d="M6120 12601l7 44c-14,3 -27,4 -37,4 -18,0 -32,-3 -42,-8 -10,-6 -17,-14 -21,-23 -4,-9 -6,-29 -6,-59l0 -168 -37 0 0 -39 37 0 0 -72 49 -30 0 102 50 0 0 39 -50 0 0 171c0,14 1,24 3,28 2,4 5,7 9,9 3,3 9,4 16,4 6,0 13,-1 22,-2z"/>
  <path id="5" class="fil2" d="M6326 12645l0 -293 45 0 0 42c21,-32 52,-48 93,-48 17,0 33,3 48,10 15,6 26,14 33,25 8,10 13,22 16,36 2,9 3,25 3,48l0 180 -50 0 0 -178c0,-20 -2,-35 -6,-45 -4,-10 -11,-18 -20,-24 -10,-6 -22,-9 -35,-9 -21,0 -39,7 -54,20 -16,13 -23,39 -23,76l0 160 -50 0z"/>
  <path id="6" class="fil2" d="M6640 12298l0 -57 50 0 0 57 -50 0zm0 347l0 -293 50 0 0 293 -50 0z"/>
  <path id="7" class="fil2" d="M6957 12538l48 7c-5,33 -19,59 -41,78 -22,19 -49,28 -81,28 -39,0 -72,-13 -96,-39 -24,-26 -36,-63 -36,-112 0,-32 5,-59 15,-83 11,-24 27,-41 48,-53 21,-12 45,-18 70,-18 32,0 58,8 78,24 20,16 33,39 39,69l-48 7c-5,-20 -13,-34 -25,-44 -11,-10 -26,-15 -42,-15 -25,0 -46,9 -61,27 -16,18 -24,46 -24,85 0,39 8,67 23,85 15,18 35,27 59,27 19,0 36,-6 49,-18 13,-12 21,-30 25,-55z"/>
  <path id="8" class="fil2" d="M7047 12645l0 -404 50 0 0 146c23,-27 52,-41 87,-41 22,0 41,4 57,13 16,8 27,20 34,35 7,15 10,37 10,66l0 185 -50 0 0 -185c0,-25 -5,-43 -16,-54 -10,-11 -25,-17 -45,-17 -15,0 -28,4 -41,11 -13,8 -22,18 -28,31 -5,13 -8,31 -8,54l0 160 -50 0z"/>
  <path id="9" class="fil2" d="M7469 12601l7 44c-14,3 -26,4 -37,4 -18,0 -32,-3 -42,-8 -10,-6 -17,-14 -21,-23 -4,-9 -6,-29 -6,-59l0 -168 -37 0 0 -39 37 0 0 -72 50 -30 0 102 49 0 0 39 -49 0 0 171c0,14 0,24 2,28 2,4 5,7 9,9 4,3 9,4 17,4 5,0 12,-1 21,-2z"/>
  <polyline class="fil3 str0" points="8510,11850 8510,13650 3910,13650 3910,12269 "/>
  <polygon class="fil1" points="3758,12307 3910,11850 4063,12307 "/>
  <path class="fil2" d="M4957 13358l49 -8c3,20 11,35 23,45 13,11 31,16 53,16 23,0 40,-5 51,-14 11,-9 17,-20 17,-33 0,-11 -5,-20 -15,-26 -7,-4 -24,-10 -51,-17 -36,-9 -62,-17 -76,-24 -14,-6 -24,-16 -32,-27 -7,-12 -10,-25 -10,-40 0,-13 3,-25 8,-36 6,-11 15,-20 25,-27 8,-6 18,-11 31,-15 14,-4 28,-6 43,-6 23,0 43,3 61,10 17,7 30,16 38,27 8,11 14,27 17,46l-48 6c-3,-15 -9,-27 -20,-35 -10,-9 -25,-13 -44,-13 -23,0 -39,4 -49,11 -10,8 -14,16 -14,27 0,6 1,12 6,17 4,5 10,10 19,13 5,2 19,6 43,13 35,9 60,17 74,23 14,6 24,14 32,26 8,11 12,25 12,42 0,17 -4,32 -14,47 -10,14 -24,26 -42,34 -18,8 -39,12 -62,12 -38,0 -67,-8 -87,-24 -20,-16 -32,-39 -38,-70z"/>
  <path id="1" class="fil2" d="M5259 13098l0 -57 50 0 0 57 -50 0zm0 347l0 -293 50 0 0 293 -50 0z"/>
  <path id="2" class="fil2" d="M5584 13351l52 6c-8,30 -23,53 -45,70 -22,16 -50,25 -84,25 -43,0 -76,-14 -101,-40 -25,-26 -38,-63 -38,-111 0,-49 13,-87 38,-114 25,-27 58,-41 98,-41 40,0 71,13 96,40 25,27 37,64 37,112 0,3 0,8 0,14l-218 0c2,32 11,56 27,73 16,17 37,26 61,26 18,0 34,-5 47,-14 13,-10 23,-25 30,-46zm-162 -80l163 0c-2,-25 -9,-43 -19,-55 -16,-20 -36,-29 -61,-29 -23,0 -42,7 -58,23 -15,15 -24,35 -25,61z"/>
  <path id="3" class="fil2" d="M5698 13445l0 -404 50 0 0 146c23,-27 52,-41 87,-41 22,0 41,4 57,13 15,9 27,20 34,35 7,15 10,37 10,66l0 185 -50 0 0 -185c0,-25 -5,-43 -16,-54 -10,-11 -25,-17 -45,-17 -15,0 -28,4 -41,11 -13,8 -22,18 -28,32 -5,13 -8,30 -8,53l0 160 -50 0z"/>
  <path id="4" class="fil2" d="M6120 13401l7 44c-14,3 -27,4 -37,4 -18,0 -32,-3 -42,-8 -10,-6 -17,-13 -21,-23 -4,-9 -6,-29 -6,-58l0 -169 -37 0 0 -39 37 0 0 -72 49 -30 0 102 50 0 0 39 -50 0 0 171c0,15 1,24 3,28 2,4 5,7 9,9 3,3 9,4 16,4 6,0 13,-1 22,-2z"/>
  <path id="5" class="fil2" d="M6326 13445l0 -293 45 0 0 42c21,-32 52,-48 93,-48 17,0 33,3 48,10 15,6 26,14 33,25 8,10 13,22 16,36 2,9 3,26 3,48l0 180 -50 0 0 -178c0,-20 -2,-35 -6,-45 -4,-10 -11,-18 -20,-24 -10,-6 -22,-9 -35,-9 -21,0 -39,7 -54,20 -16,14 -23,39 -23,77l0 159 -50 0z"/>
  <path id="6" class="fil2" d="M6640 13098l0 -57 50 0 0 57 -50 0zm0 347l0 -293 50 0 0 293 -50 0z"/>
  <path id="7" class="fil2" d="M6957 13338l48 7c-5,33 -19,59 -41,78 -22,19 -49,29 -81,29 -39,0 -72,-14 -96,-40 -24,-26 -36,-63 -36,-112 0,-32 5,-59 15,-83 11,-23 27,-41 48,-53 21,-12 45,-18 70,-18 32,0 58,8 78,24 20,16 33,39 39,69l-48 7c-5,-20 -13,-34 -25,-44 -11,-10 -26,-15 -42,-15 -25,0 -46,9 -61,27 -16,18 -24,46 -24,85 0,39 8,67 23,85 15,18 35,27 59,27 19,0 36,-6 49,-18 13,-12 21,-30 25,-55z"/>
  <path id="8" class="fil2" d="M7047 13445l0 -404 50 0 0 146c23,-27 52,-41 87,-41 22,0 41,4 57,13 16,9 27,20 34,35 7,15 10,37 10,66l0 185 -50 0 0 -185c0,-25 -5,-43 -16,-54 -10,-11 -25,-17 -45,-17 -15,0 -28,4 -41,11 -13,8 -22,18 -28,32 -5,13 -8,30 -8,53l0 160 -50 0z"/>
  <path id="9" class="fil2" d="M7469 13401l7 44c-14,3 -26,4 -37,4 -18,0 -32,-3 -42,-8 -10,-6 -17,-13 -21,-23 -4,-9 -6,-29 -6,-58l0 -169 -37 0 0 -39 37 0 0 -72 50 -30 0 102 49 0 0 39 -49 0 0 171c0,15 0,24 2,28 2,4 5,7 9,9 4,3 9,4 17,4 5,0 12,-1 21,-2z"/>
  <path class="fil4" d="M6168 11313l0 -85 84 0 0 85 -84 0zm0 354l0 -84 84 0 0 84c0,32 -5,57 -16,76 -11,19 -29,34 -53,45l-20 -32c16,-7 27,-17 34,-31 8,-13 12,-33 13,-58l-42 0z"/>
  <path class="fil4" d="M9856 11313l0 -85 84 0 0 85 -84 0zm0 354l0 -84 84 0 0 84c0,32 -5,57 -16,76 -11,19 -29,34 -53,45l-20 -32c15,-7 27,-17 34,-31 8,-13 12,-33 13,-58l-42 0z"/>
  <polygon class="fil4" points="10328,11667 10328,11583 10413,11583 10413,11667 "/>
  <polygon id="1" class="fil4" points="10563,11667 10563,11583 10648,11583 10648,11667 "/>
  <polygon id="2" class="fil4" points="10799,11667 10799,11583 10883,11583 10883,11667 "/>
  <path class="fil4" d="M447 11667l0 -606 227 0c47,0 84,6 112,18 28,13 50,32 66,57 16,26 23,52 23,80 0,26 -7,50 -21,73 -14,23 -35,42 -63,56 37,10 65,29 84,55 20,26 30,56 30,92 0,28 -6,54 -18,79 -12,24 -27,43 -44,56 -18,13 -40,23 -67,30 -26,7 -59,10 -98,10l-231 0zm80 -351l132 0c35,0 61,-2 76,-7 20,-6 36,-16 46,-30 10,-15 16,-32 16,-53 0,-21 -5,-38 -15,-54 -9,-15 -23,-26 -41,-31 -18,-6 -49,-9 -92,-9l-122 0 0 184zm0 280l151 0c26,0 45,-1 55,-3 19,-3 34,-8 46,-16 13,-8 23,-19 31,-34 8,-15 12,-32 12,-51 0,-23 -6,-43 -17,-59 -12,-17 -28,-29 -49,-36 -20,-7 -50,-10 -88,-10l-141 0 0 209z"/>
  <path id="1" class="fil4" d="M1293 11506l73 11c-8,50 -29,89 -62,117 -32,29 -73,43 -121,43 -60,0 -108,-20 -144,-59 -37,-39 -55,-96 -55,-169 0,-47 8,-88 23,-124 16,-35 40,-62 72,-80 32,-17 67,-26 105,-26 47,0 86,12 117,36 30,24 49,58 58,102l-72 11c-7,-29 -19,-51 -37,-66 -17,-15 -38,-22 -63,-22 -38,0 -68,13 -92,40 -23,27 -35,69 -35,127 0,59 11,102 34,129 23,26 52,40 88,40 30,0 54,-9 74,-27 19,-18 32,-45 37,-83z"/>
  <path id="2" class="fil4" d="M1716 11506l73 11c-8,50 -28,89 -61,117 -33,29 -74,43 -121,43 -60,0 -109,-20 -145,-59 -37,-39 -55,-96 -55,-169 0,-47 8,-88 24,-124 15,-35 39,-62 71,-80 32,-17 67,-26 105,-26 48,0 87,12 117,36 30,24 50,58 58,102l-72 11c-7,-29 -19,-51 -36,-66 -18,-15 -39,-22 -64,-22 -37,0 -68,13 -92,40 -23,27 -35,69 -35,127 0,59 12,102 34,129 23,26 52,40 89,40 29,0 53,-9 73,-27 20,-18 32,-45 37,-83z"/>
  <path class="fil4" d="M1873 11313l0 -85 84 0 0 85 -84 0zm0 354l0 -84 84 0 0 84 -84 0z"/>
  <polyline class="fil3 str1" points="7710,8769 7710,9350 4710,9350 4710,8350 "/>
  <polygon class="fil5" points="7557,8807 7710,8350 7862,8807 "/>
  <path class="fil6" d="M5632 9058l49 -8c2,19 10,34 23,45 12,10 30,16 53,16 22,0 39,-5 50,-14 11,-10 17,-20 17,-33 0,-11 -5,-20 -15,-26 -7,-5 -24,-10 -51,-17 -36,-9 -61,-17 -75,-24 -14,-7 -25,-16 -32,-28 -7,-12 -11,-25 -11,-39 0,-13 3,-25 9,-36 6,-11 14,-21 24,-28 8,-5 19,-10 32,-14 13,-4 27,-6 43,-6 23,0 43,3 60,10 17,6 30,15 39,27 8,11 13,26 17,45l-49 7c-2,-15 -9,-27 -19,-36 -11,-8 -25,-13 -45,-13 -22,0 -39,4 -48,12 -10,7 -15,16 -15,26 0,7 2,12 6,18 4,5 10,9 19,13 5,2 20,6 44,12 35,10 59,18 73,23 14,6 25,15 33,26 8,12 12,26 12,43 0,16 -5,32 -15,46 -9,15 -23,26 -41,34 -19,8 -39,12 -62,12 -38,0 -67,-8 -87,-23 -20,-16 -33,-40 -38,-70z"/>
  <path id="1" class="fil6" d="M5934 8797l0 -56 49 0 0 56 -49 0zm0 348l0 -293 49 0 0 293 -49 0z"/>
  <path id="2" class="fil6" d="M6259 9050l51 7c-8,30 -23,53 -45,69 -21,17 -49,25 -83,25 -43,0 -77,-13 -102,-39 -25,-27 -37,-64 -37,-111 0,-49 12,-87 37,-114 26,-28 59,-41 99,-41 39,0 71,13 96,40 24,26 37,64 37,112 0,3 0,7 0,13l-219 0c2,32 11,57 28,74 16,17 36,26 61,26 18,0 33,-5 46,-15 13,-9 23,-25 31,-46zm-163 -79l163 0c-2,-25 -8,-44 -18,-56 -16,-19 -37,-29 -62,-29 -22,0 -42,8 -57,23 -16,16 -24,36 -26,62z"/>
  <path id="3" class="fil6" d="M6373 9145l0 -404 50 0 0 145c23,-27 52,-40 87,-40 21,0 40,4 56,13 16,8 27,20 34,35 7,15 10,37 10,66l0 185 -49 0 0 -185c0,-25 -6,-43 -16,-54 -11,-12 -26,-17 -46,-17 -14,0 -28,4 -41,11 -13,8 -22,18 -27,31 -6,13 -8,31 -8,54l0 160 -50 0z"/>
  <path id="4" class="fil6" d="M6795 9101l6 44c-14,2 -26,4 -37,4 -18,0 -32,-3 -42,-9 -10,-5 -17,-13 -21,-22 -4,-9 -6,-29 -6,-59l0 -169 -36 0 0 -38 36 0 0 -72 50 -30 0 102 50 0 0 38 -50 0 0 172c0,14 1,23 3,27 1,4 4,8 8,10 4,2 10,4 17,4 5,0 13,-1 22,-2z"/>
  <polyline class="fil3 str1" points="8510,8350 8510,10150 3910,10150 3910,8769 "/>
  <polygon class="fil5" points="3758,8807 3910,8350 4063,8807 "/>
  <path class="fil6" d="M5632 9858l49 -8c2,19 10,34 23,45 12,10 30,16 53,16 22,0 39,-5 50,-14 11,-9 17,-20 17,-33 0,-11 -5,-20 -15,-26 -7,-5 -24,-10 -51,-17 -36,-9 -61,-17 -75,-24 -14,-7 -25,-16 -32,-28 -7,-11 -11,-25 -11,-39 0,-13 3,-25 9,-36 6,-11 14,-20 24,-28 8,-5 19,-10 32,-14 13,-4 27,-6 43,-6 23,0 43,3 60,10 17,6 30,16 39,27 8,11 13,26 17,45l-49 7c-2,-15 -9,-27 -19,-36 -11,-8 -25,-12 -45,-12 -22,0 -39,3 -48,11 -10,7 -15,16 -15,26 0,7 2,13 6,18 4,5 10,9 19,13 5,2 20,6 44,13 35,9 59,17 73,23 14,5 25,14 33,25 8,12 12,26 12,43 0,16 -5,32 -15,46 -9,15 -23,26 -41,34 -19,8 -39,12 -62,12 -38,0 -67,-8 -87,-23 -20,-16 -33,-39 -38,-70z"/>
  <path id="1" class="fil6" d="M5934 9597l0 -56 49 0 0 56 -49 0zm0 348l0 -293 49 0 0 293 -49 0z"/>
  <path id="2" class="fil6" d="M6259 9850l51 7c-8,30 -23,53 -45,70 -21,16 -49,24 -83,24 -43,0 -77,-13 -102,-39 -25,-26 -37,-63 -37,-111 0,-49 12,-87 37,-114 26,-28 59,-41 99,-41 39,0 71,13 96,40 24,26 37,64 37,112 0,3 0,7 0,13l-219 0c2,32 11,57 28,74 16,17 36,26 61,26 18,0 33,-5 46,-15 13,-9 23,-25 31,-46zm-163 -79l163 0c-2,-25 -8,-43 -18,-56 -16,-19 -37,-28 -62,-28 -22,0 -42,7 -57,22 -16,16 -24,36 -26,62z"/>
  <path id="3" class="fil6" d="M6373 9945l0 -404 50 0 0 145c23,-27 52,-40 87,-40 21,0 40,4 56,13 16,8 27,20 34,35 7,15 10,37 10,66l0 185 -49 0 0 -185c0,-25 -6,-43 -16,-54 -11,-12 -26,-17 -46,-17 -14,0 -28,4 -41,11 -13,8 -22,18 -27,31 -6,13 -8,31 -8,54l0 160 -50 0z"/>
  <path id="4" class="fil6" d="M6795 9901l6 44c-14,3 -26,4 -37,4 -18,0 -32,-3 -42,-9 -10,-5 -17,-13 -21,-22 -4,-9 -6,-29 -6,-59l0 -168 -36 0 0 -39 36 0 0 -72 50 -30 0 102 50 0 0 39 -50 0 0 171c0,14 1,23 3,27 1,5 4,8 8,10 4,3 10,4 17,4 5,0 13,-1 22,-2z"/>
  <path class="fil4" d="M6168 7812l0 -84 84 0 0 84 -84 0zm0 355l0 -85 84 0 0 85c0,31 -5,57 -16,76 -11,19 -29,34 -53,44l-20 -32c16,-6 27,-17 34,-30 8,-13 12,-33 13,-58l-42 0z"/>
  <path class="fil4" d="M9856 7812l0 -84 84 0 0 84 -84 0zm0 355l0 -85 84 0 0 85c0,31 -5,57 -16,76 -11,19 -29,34 -53,44l-20 -32c15,-6 27,-17 34,-30 8,-13 12,-33 13,-58l-42 0z"/>
  <polygon class="fil4" points="10328,8167 10328,8082 10413,8082 10413,8167 "/>
  <polygon id="1" class="fil4" points="10563,8167 10563,8082 10648,8082 10648,8167 "/>
  <polygon id="2" class="fil4" points="10799,8167 10799,8082 10883,8082 10883,8167 "/>
  <path class="fil4" d="M882 7954l81 21c-17,66 -47,116 -91,150 -44,35 -97,52 -160,52 -65,0 -118,-13 -159,-40 -41,-26 -72,-65 -93,-115 -22,-51 -32,-105 -32,-163 0,-63 12,-118 36,-165 24,-47 58,-82 103,-107 44,-24 93,-36 146,-36 61,0 112,15 153,46 41,31 70,74 86,130l-78 19c-14,-44 -35,-76 -61,-97 -27,-20 -61,-30 -101,-30 -47,0 -85,11 -117,34 -31,22 -53,52 -65,90 -13,37 -19,76 -19,116 0,52 7,97 22,135 15,38 38,67 70,86 31,19 66,29 102,29 45,0 83,-13 114,-39 31,-26 52,-64 63,-116z"/>
  <path id="1" class="fil4" d="M1340 8006l72 10c-8,50 -28,90 -61,118 -33,28 -73,42 -121,42 -60,0 -108,-19 -145,-58 -36,-40 -54,-96 -54,-169 0,-47 7,-89 23,-124 16,-36 40,-62 72,-80 32,-18 67,-27 104,-27 48,0 87,12 117,36 31,25 50,59 59,103l-72 11c-7,-29 -19,-51 -37,-66 -18,-15 -39,-23 -64,-23 -37,0 -68,14 -91,41 -24,26 -35,69 -35,127 0,59 11,102 34,128 22,27 52,40 88,40 29,0 54,-8 73,-26 20,-18 32,-46 38,-83z"/>
  <path class="fil4" d="M1496 7812l0 -84 85 0 0 84 -85 0zm0 355l0 -85 85 0 0 85 -85 0z"/>
  <path class="fil4" d="M9856 4313l0 -85 84 0 0 85 -84 0zm0 355l0 -85 84 0 0 85c0,31 -5,56 -16,75 -11,19 -29,34 -53,45l-20 -32c15,-7 27,-17 34,-31 8,-13 12,-32 13,-57l-42 0z"/>
  <polygon class="fil4" points="10328,4668 10328,4583 10413,4583 10413,4668 "/>
  <polygon id="1" class="fil4" points="10563,4668 10563,4583 10648,4583 10648,4668 "/>
  <polygon id="2" class="fil4" points="10799,4668 10799,4583 10883,4583 10883,4668 "/>
  <path class="fil4" d="M384 4668l232 -607 89 0 246 607 -91 0 -70 -184 -255 0 -66 184 -85 0zm174 -249l207 0 -63 -168c-19,-52 -34,-94 -44,-127 -8,39 -19,78 -33,117l-67 178z"/>
  <path id="1" class="fil4" d="M1006 4668l0 -440 67 0 0 62c32,-47 78,-71 139,-71 27,0 51,5 73,14 22,10 39,22 50,37 11,16 19,34 23,55 3,14 4,38 4,73l0 270 -74 0 0 -267c0,-31 -3,-54 -9,-68 -6,-15 -16,-27 -31,-36 -14,-9 -32,-14 -51,-14 -32,0 -59,10 -82,30 -23,20 -35,59 -35,115l0 240 -74 0z"/>
  <path class="fil4" d="M1497 4313l0 -85 85 0 0 85 -85 0zm0 355l0 -85 85 0 0 85 -85 0z"/>
  <polygon class="fil7" points="3150,1350 5550,1350 5550,350 3150,350 "/>
  <polygon class="fil3 str2" points="3150,1350 5550,1350 5550,350 3150,350 "/>
  <path class="fil4" d="M3619 1167l232 -606 89 0 246 606 -91 0 -70 -183 -255 0 -66 183 -85 0zm174 -249l207 0 -63 -168c-19,-51 -34,-93 -44,-126 -8,39 -19,78 -33,116l-67 178z"/>
  <path id="1" class="fil4" d="M4309 1167l-69 0 0 -606 74 0 0 216c32,-39 72,-58 121,-58 27,0 52,5 77,16 24,11 43,26 59,46 16,19 28,43 37,71 9,28 13,57 13,89 0,75 -19,133 -56,174 -37,41 -82,62 -134,62 -51,0 -92,-22 -122,-65l0 55zm0 -223c0,53 7,91 21,114 23,38 55,58 95,58 33,0 61,-14 84,-43 24,-28 36,-70 36,-126 0,-57 -12,-99 -34,-127 -23,-27 -50,-41 -83,-41 -32,0 -60,15 -84,43 -24,28 -35,69 -35,122z"/>
  <path id="2" class="fil4" d="M4682 1036l74 -12c4,30 15,52 34,68 19,16 46,24 80,24 34,0 59,-7 76,-21 16,-14 25,-30 25,-49 0,-17 -8,-30 -23,-40 -10,-7 -35,-15 -76,-25 -54,-14 -92,-26 -113,-36 -21,-10 -37,-24 -48,-41 -11,-18 -16,-38 -16,-59 0,-20 4,-38 13,-54 9,-17 21,-31 37,-42 11,-8 27,-16 47,-22 20,-6 41,-8 64,-8 35,0 65,4 91,14 26,10 45,24 58,41 12,17 20,40 25,68l-73 10c-3,-23 -13,-40 -28,-53 -16,-13 -39,-20 -67,-20 -34,0 -59,6 -73,17 -15,12 -22,25 -22,40 0,10 3,18 9,26 6,8 15,15 28,20 8,3 29,9 66,19 52,14 89,26 110,34 21,9 37,22 49,39 12,17 18,39 18,64 0,25 -7,48 -22,70 -14,22 -35,39 -62,51 -28,12 -59,18 -93,18 -57,0 -101,-12 -131,-36 -30,-24 -49,-59 -57,-105z"/>
  <path class="fil4" d="M623 1167l-234 -606 87 0 157 441c13,35 24,68 32,99 9,-33 20,-66 33,-99l163 -441 82 0 -236 606 -84 0z"/>
  <path id="1" class="fil4" d="M931 948c0,-82 23,-142 68,-181 38,-32 84,-48 138,-48 60,0 110,19 148,59 38,39 58,94 58,163 0,57 -9,101 -26,133 -17,33 -41,58 -74,76 -32,18 -68,27 -106,27 -61,0 -111,-20 -149,-59 -38,-40 -57,-96 -57,-170zm76 0c0,56 13,98 37,126 25,28 56,42 93,42 37,0 68,-14 93,-42 24,-29 36,-71 36,-129 0,-54 -12,-95 -37,-123 -24,-28 -55,-42 -92,-42 -37,0 -68,14 -93,42 -24,28 -37,70 -37,126z"/>
  <path id="2" class="fil4" d="M1430 1167l0 -439 67 0 0 62c32,-48 79,-71 139,-71 27,0 51,4 73,14 23,9 39,22 50,37 11,16 19,34 23,55 3,14 4,38 4,72l0 270 -74 0 0 -267c0,-30 -3,-53 -9,-68 -5,-15 -16,-27 -30,-36 -15,-9 -32,-13 -52,-13 -32,0 -59,10 -82,30 -23,20 -34,58 -34,115l0 239 -75 0z"/>
  <path class="fil4" d="M1968 813l0 -85 84 0 0 85 -84 0zm0 354l0 -84 84 0 0 84 -84 0z"/>
  <polyline class="fil3 str0" points="11250,8050 13050,8050 13050,11149 11669,11149 "/>
  <polygon class="fil1" points="11707,11302 11250,11149 11707,10997 "/>
  <path class="fil2" d="M12758 11025l-8 -49c20,-2 35,-10 45,-23 11,-12 16,-30 16,-53 0,-22 -5,-39 -14,-50 -9,-11 -20,-17 -33,-17 -11,0 -20,5 -26,15 -5,7 -10,24 -17,51 -9,36 -17,61 -24,75 -6,14 -16,25 -28,32 -11,7 -24,11 -39,11 -13,0 -25,-3 -36,-9 -11,-6 -20,-14 -28,-24 -5,-8 -10,-19 -14,-32 -4,-13 -6,-27 -6,-43 0,-23 3,-43 10,-60 7,-17 16,-30 27,-39 11,-8 27,-13 46,-17l6 49c-15,2 -27,9 -35,19 -9,11 -13,25 -13,45 0,22 4,39 11,48 8,10 16,15 27,15 6,0 12,-2 17,-6 5,-4 10,-10 13,-19 2,-5 6,-20 13,-44 9,-35 17,-59 23,-73 6,-14 14,-25 26,-33 11,-8 25,-12 42,-12 17,0 32,5 47,15 14,9 26,23 34,41 8,19 12,39 12,62 0,38 -8,67 -24,87 -16,20 -39,33 -70,38z"/>
  <path id="1" class="fil2" d="M12750 10524l7 -52c30,8 53,23 70,45 16,22 25,50 25,84 0,42 -14,76 -40,101 -26,25 -63,38 -111,38 -49,0 -87,-13 -114,-38 -27,-25 -41,-58 -41,-99 0,-39 13,-71 40,-95 27,-25 64,-37 112,-37 3,0 8,0 14,0l0 218c32,-2 56,-11 73,-27 17,-17 26,-37 26,-61 0,-18 -5,-34 -15,-47 -9,-13 -24,-23 -46,-30zm-79 162l0 -163c-25,2 -43,9 -56,19 -19,16 -28,36 -28,61 0,23 7,42 23,58 15,15 35,24 61,25z"/>
  <path id="2" class="fil2" d="M12845 10410l-404 0 0 -50 146 0c-27,-23 -41,-52 -41,-87 0,-22 4,-41 13,-57 9,-16 20,-27 35,-34 15,-7 37,-10 66,-10l185 0 0 50 -185 0c-25,0 -43,5 -54,16 -11,10 -17,25 -17,45 0,15 4,28 11,41 8,13 18,22 31,28 13,5 31,8 54,8l160 0 0 50z"/>
  <path id="3" class="fil2" d="M12750 9896l7 -52c30,8 53,23 70,45 16,22 25,50 25,84 0,43 -14,76 -40,101 -26,25 -63,38 -111,38 -49,0 -87,-13 -114,-38 -27,-25 -41,-58 -41,-98 0,-39 13,-71 40,-96 27,-25 64,-37 112,-37 3,0 8,0 14,0l0 218c32,-2 56,-11 73,-27 17,-16 26,-37 26,-61 0,-18 -5,-34 -15,-47 -9,-13 -24,-23 -46,-30zm-79 162l0 -163c-25,2 -43,9 -56,19 -19,16 -28,36 -28,61 0,23 7,42 23,58 15,15 35,24 61,25z"/>
  <path id="4" class="fil2" d="M12845 9782l-293 0 0 -45 42 0c-32,-21 -48,-52 -48,-93 0,-18 3,-34 10,-49 6,-14 14,-25 25,-33 10,-7 22,-12 36,-15 9,-2 25,-3 48,-3l180 0 0 50 -178 0c-20,0 -35,2 -45,5 -10,4 -18,11 -24,21 -6,10 -9,21 -9,35 0,21 7,39 20,54 14,15 39,23 76,23l160 0 0 50z"/>
  <path id="5" class="fil2" d="M12845 9311l-293 0 0 -45 42 0c-32,-21 -48,-52 -48,-93 0,-17 3,-34 10,-48 6,-15 14,-26 25,-34 10,-7 22,-12 36,-15 9,-2 25,-3 48,-3l180 0 0 50 -178 0c-20,0 -35,2 -45,6 -10,4 -18,10 -24,20 -6,10 -9,22 -9,35 0,21 7,39 20,54 14,16 39,23 76,23l160 0 0 50z"/>
  <path id="6" class="fil2" d="M12498 8997l-57 0 0 -50 57 0 0 50zm347 0l-293 0 0 -50 293 0 0 50z"/>
  <path id="7" class="fil2" d="M12738 8680l7 -48c33,5 59,19 78,41 19,22 29,49 29,80 0,40 -14,73 -40,97 -26,24 -63,36 -112,36 -32,0 -59,-5 -83,-15 -24,-11 -41,-27 -53,-48 -12,-22 -18,-45 -18,-70 0,-32 8,-58 24,-78 16,-20 39,-33 69,-39l7 48c-20,5 -34,13 -44,25 -10,11 -15,25 -15,42 0,25 9,45 27,61 18,16 46,24 85,24 39,0 67,-8 85,-23 18,-15 27,-35 27,-59 0,-20 -6,-36 -18,-49 -12,-13 -30,-21 -55,-25z"/>
  <path id="8" class="fil2" d="M12845 8589l-404 0 0 -49 146 0c-27,-23 -41,-52 -41,-88 0,-21 4,-40 13,-56 9,-16 20,-27 35,-34 15,-7 37,-10 66,-10l185 0 0 49 -185 0c-25,0 -43,6 -54,16 -11,11 -17,26 -17,46 0,14 4,28 11,41 8,13 18,22 31,28 13,5 31,8 54,8l160 0 0 49z"/>
  <path id="9" class="fil2" d="M12801 8168l44 -7c3,14 4,26 4,37 0,18 -3,32 -8,42 -6,10 -13,17 -23,21 -9,4 -29,6 -58,6l-169 0 0 37 -39 0 0 -37 -72 0 -30 -50 102 0 0 -49 39 0 0 49 171 0c15,0 24,0 28,-2 4,-2 7,-5 9,-9 3,-4 4,-9 4,-17 0,-5 -1,-12 -2,-21z"/>
  <polyline class="fil3 str1" points="11669,8350 12250,8350 12250,10850 11250,10850 "/>
  <polygon class="fil5" points="11707,8502 11250,8350 11707,8197 "/>
  <path class="fil6" d="M11958 10351l-8 -49c19,-3 35,-11 45,-23 11,-13 16,-31 16,-53 0,-23 -5,-40 -14,-51 -9,-11 -20,-17 -33,-17 -11,0 -20,5 -26,15 -5,7 -10,24 -17,51 -9,36 -17,62 -24,76 -7,14 -16,24 -28,32 -11,7 -24,10 -39,10 -13,0 -25,-3 -36,-8 -11,-6 -20,-15 -28,-25 -5,-8 -10,-18 -14,-31 -4,-14 -6,-28 -6,-43 0,-23 3,-43 10,-61 7,-17 16,-30 27,-38 11,-8 26,-14 45,-17l7 48c-15,3 -27,9 -36,20 -8,10 -12,25 -12,44 0,23 3,39 11,49 8,10 16,14 26,14 7,0 13,-1 18,-6 5,-4 10,-10 13,-19 2,-5 6,-19 13,-43 9,-35 17,-60 23,-74 6,-14 14,-24 26,-32 11,-8 25,-12 42,-12 17,0 32,4 47,14 14,10 25,24 33,42 8,18 12,39 12,62 0,38 -7,67 -23,87 -16,20 -39,32 -70,38z"/>
  <path id="1" class="fil6" d="M11950 9849l7 -51c30,8 53,23 70,45 16,21 24,49 24,83 0,43 -13,77 -39,102 -26,25 -63,37 -111,37 -49,0 -87,-12 -114,-38 -27,-25 -41,-58 -41,-98 0,-39 13,-71 40,-96 27,-24 64,-37 112,-37 3,0 8,0 13,0l0 219c33,-2 57,-11 74,-28 17,-16 26,-36 26,-61 0,-18 -5,-33 -15,-46 -9,-13 -25,-23 -46,-31zm-79 163l0 -163c-25,2 -43,8 -56,18 -19,16 -28,37 -28,62 0,22 7,41 23,57 15,15 35,24 61,26z"/>
  <path id="2" class="fil6" d="M12045 9735l-404 0 0 -50 146 0c-27,-23 -41,-52 -41,-87 0,-21 4,-40 13,-56 8,-16 20,-27 35,-34 15,-7 37,-11 66,-11l185 0 0 50 -185 0c-25,0 -43,5 -54,16 -11,11 -17,26 -17,45 0,15 4,29 11,42 8,13 18,22 31,27 13,6 31,8 54,8l160 0 0 50z"/>
  <path id="3" class="fil6" d="M11950 9221l7 -51c30,8 53,23 70,45 16,22 24,49 24,83 0,43 -13,77 -39,102 -26,25 -63,37 -111,37 -49,0 -87,-12 -114,-37 -27,-26 -41,-59 -41,-99 0,-39 13,-71 40,-96 27,-24 64,-37 112,-37 3,0 8,0 13,1l0 218c33,-2 57,-11 74,-28 17,-16 26,-36 26,-61 0,-18 -5,-33 -15,-46 -9,-13 -25,-23 -46,-31zm-79 163l0 -163c-25,2 -43,8 -56,18 -19,16 -28,37 -28,62 0,23 7,42 23,57 15,16 35,24 61,26z"/>
  <path id="4" class="fil6" d="M12045 9107l-293 0 0 -44 42 0c-32,-22 -48,-53 -48,-93 0,-18 3,-34 10,-49 6,-15 14,-26 24,-33 11,-8 23,-13 37,-16 9,-1 25,-2 48,-2l180 0 0 49 -178 0c-20,0 -35,2 -45,6 -10,4 -18,11 -24,20 -6,10 -9,22 -9,35 0,21 7,39 20,55 13,15 39,23 76,23l160 0 0 49z"/>
  <polyline class="fil3 str1" points="11250,4550 13050,4550 13050,7650 11669,7650 "/>
  <polygon class="fil5" points="11707,7802 11250,7650 11707,7498 "/>
  <path class="fil6" d="M12758 6851l-8 -49c20,-2 35,-10 45,-23 11,-12 16,-30 16,-53 0,-23 -5,-39 -14,-51 -9,-11 -20,-16 -33,-16 -11,0 -20,5 -26,15 -5,7 -10,24 -17,51 -9,36 -17,61 -24,75 -6,14 -16,25 -28,32 -11,7 -24,11 -39,11 -13,0 -25,-3 -36,-9 -11,-6 -20,-14 -28,-24 -5,-8 -10,-19 -14,-32 -4,-13 -6,-27 -6,-43 0,-23 3,-43 10,-60 7,-18 16,-30 27,-39 11,-8 27,-14 46,-17l6 49c-15,2 -27,8 -35,19 -9,11 -13,25 -13,45 0,22 4,39 11,48 8,10 16,15 27,15 6,0 12,-2 17,-6 5,-4 10,-10 13,-19 2,-5 6,-20 13,-44 9,-35 17,-59 23,-73 6,-14 14,-25 26,-33 11,-8 25,-12 42,-12 17,0 32,5 47,15 14,9 26,23 34,41 8,19 12,39 12,62 0,38 -8,67 -24,87 -16,20 -39,33 -70,38z"/>
  <path id="1" class="fil6" d="M12750 6350l7 -52c30,8 53,23 70,45 16,22 25,50 25,84 0,42 -14,76 -40,101 -26,25 -63,38 -111,38 -49,0 -87,-13 -114,-38 -27,-25 -41,-58 -41,-99 0,-39 13,-71 40,-95 27,-25 64,-37 112,-37 3,0 8,0 14,0l0 218c32,-2 56,-11 73,-27 17,-17 26,-37 26,-61 0,-19 -5,-34 -15,-47 -9,-13 -24,-23 -46,-30zm-79 162l0 -163c-25,2 -43,8 -56,19 -19,15 -28,36 -28,61 0,23 7,42 23,57 15,16 35,24 61,26z"/>
  <path id="2" class="fil6" d="M12845 6235l-404 0 0 -49 146 0c-27,-23 -41,-52 -41,-87 0,-22 4,-41 13,-57 9,-16 20,-27 35,-34 15,-7 37,-10 66,-10l185 0 0 50 -185 0c-25,0 -43,5 -54,16 -11,10 -17,25 -17,45 0,14 4,28 11,41 8,13 18,22 31,28 13,5 31,8 54,8l160 0 0 49z"/>
  <path id="3" class="fil6" d="M12750 5722l7 -52c30,8 53,23 70,45 16,22 25,50 25,84 0,43 -14,76 -40,101 -26,25 -63,38 -111,38 -49,0 -87,-13 -114,-38 -27,-25 -41,-58 -41,-98 0,-40 13,-71 40,-96 27,-25 64,-37 112,-37 3,0 8,0 14,0l0 218c32,-2 56,-11 73,-27 17,-16 26,-37 26,-61 0,-18 -5,-34 -15,-47 -9,-13 -24,-23 -46,-30zm-79 162l0 -163c-25,2 -43,9 -56,19 -19,16 -28,36 -28,61 0,23 7,42 23,58 15,15 35,24 61,25z"/>
  <path id="4" class="fil6" d="M12845 5608l-293 0 0 -45 42 0c-32,-21 -48,-52 -48,-93 0,-18 3,-34 10,-49 6,-14 14,-25 25,-33 10,-7 22,-12 36,-15 9,-2 25,-3 48,-3l180 0 0 50 -178 0c-20,0 -35,2 -45,5 -10,4 -18,11 -24,21 -6,10 -9,21 -9,34 0,22 7,40 20,55 14,15 39,23 76,23l160 0 0 50z"/>
  <polyline class="fil3 str1" points="11669,4850 12250,4850 12250,7350 11250,7350 "/>
  <polygon class="fil5" points="11707,5002 11250,4850 11707,4697 "/>
  <path class="fil6" d="M11958 6851l-8 -49c19,-2 35,-10 45,-23 11,-12 16,-30 16,-53 0,-23 -5,-39 -14,-51 -9,-11 -20,-16 -33,-16 -11,0 -20,5 -26,15 -5,7 -10,24 -17,51 -9,36 -17,61 -24,75 -7,14 -16,25 -28,32 -11,7 -24,11 -39,11 -13,0 -25,-3 -36,-9 -11,-6 -20,-14 -28,-24 -5,-8 -10,-19 -14,-32 -4,-13 -6,-27 -6,-43 0,-23 3,-43 10,-60 7,-18 16,-30 27,-39 11,-8 26,-14 45,-17l7 49c-15,2 -27,8 -36,19 -8,11 -12,25 -12,45 0,22 3,39 11,48 8,10 16,15 26,15 7,0 13,-2 18,-6 5,-4 10,-10 13,-19 2,-5 6,-20 13,-44 9,-35 17,-59 23,-73 6,-14 14,-25 26,-33 11,-8 25,-12 42,-12 17,0 32,5 47,15 14,9 25,23 33,41 8,19 12,39 12,62 0,38 -7,67 -23,87 -16,20 -39,33 -70,38z"/>
  <path id="1" class="fil6" d="M11950 6350l7 -52c30,8 53,23 70,45 16,22 24,50 24,84 0,42 -13,76 -39,101 -26,25 -63,38 -111,38 -49,0 -87,-13 -114,-38 -27,-25 -41,-58 -41,-99 0,-39 13,-71 40,-95 27,-25 64,-37 112,-37 3,0 8,0 13,0l0 218c33,-2 57,-11 74,-27 17,-17 26,-37 26,-61 0,-19 -5,-34 -15,-47 -9,-13 -25,-23 -46,-30zm-79 162l0 -163c-25,2 -43,8 -56,19 -19,15 -28,36 -28,61 0,23 7,42 23,57 15,16 35,24 61,26z"/>
  <path id="2" class="fil6" d="M12045 6235l-404 0 0 -49 146 0c-27,-23 -41,-52 -41,-87 0,-22 4,-41 13,-57 8,-16 20,-27 35,-34 15,-7 37,-10 66,-10l185 0 0 50 -185 0c-25,0 -43,5 -54,16 -11,10 -17,25 -17,45 0,14 4,28 11,41 8,13 18,22 31,28 13,5 31,8 54,8l160 0 0 49z"/>
  <path id="3" class="fil6" d="M11950 5722l7 -52c30,8 53,23 70,45 16,22 24,50 24,84 0,43 -13,76 -39,101 -26,25 -63,38 -111,38 -49,0 -87,-13 -114,-38 -27,-25 -41,-58 -41,-98 0,-40 13,-71 40,-96 27,-25 64,-37 112,-37 3,0 8,0 13,0l0 218c33,-2 57,-11 74,-27 17,-16 26,-37 26,-61 0,-18 -5,-34 -15,-47 -9,-13 -25,-23 -46,-30zm-79 162l0 -163c-25,2 -43,9 -56,19 -19,16 -28,36 -28,61 0,23 7,42 23,58 15,15 35,24 61,25z"/>
  <path id="4" class="fil6" d="M12045 5608l-293 0 0 -45 42 0c-32,-21 -48,-52 -48,-93 0,-18 3,-34 10,-49 6,-14 14,-25 24,-33 11,-7 23,-12 37,-15 9,-2 25,-3 48,-3l180 0 0 50 -178 0c-20,0 -35,2 -45,5 -10,4 -18,11 -24,21 -6,10 -9,21 -9,34 0,22 7,40 20,55 13,15 39,23 76,23l160 0 0 50z"/>
  <polyline class="fil3 str0" points="11250,3850 14850,3850 14850,11850 11669,11850 "/>
  <polygon class="fil1" points="11707,12002 11250,11850 11707,11698 "/>
  <path class="fil2" d="M14558 9276l-8 -49c19,-3 35,-11 45,-23 10,-13 16,-31 16,-53 0,-23 -5,-40 -14,-51 -9,-11 -20,-17 -33,-17 -11,0 -20,5 -26,15 -5,7 -10,24 -17,51 -9,36 -17,61 -24,75 -7,14 -16,25 -28,32 -11,8 -24,11 -39,11 -13,0 -25,-3 -36,-9 -11,-6 -20,-14 -28,-24 -5,-8 -10,-18 -14,-32 -4,-13 -6,-27 -6,-42 0,-23 3,-44 10,-61 7,-17 16,-30 27,-38 11,-8 26,-14 45,-17l7 48c-15,2 -27,9 -36,19 -8,11 -12,26 -12,45 0,23 3,39 11,49 7,9 16,14 26,14 7,0 13,-2 18,-6 5,-4 9,-10 13,-19 2,-5 6,-19 13,-44 9,-35 17,-59 23,-73 6,-14 14,-25 26,-33 11,-8 25,-12 42,-12 16,0 32,5 47,15 14,10 25,23 33,42 8,18 12,38 12,61 0,38 -8,68 -23,87 -16,20 -39,33 -70,39z"/>
  <path id="1" class="fil2" d="M14550 8774l7 -51c30,8 53,22 70,44 16,22 24,50 24,84 0,43 -13,76 -39,102 -26,25 -63,37 -111,37 -49,0 -87,-13 -114,-38 -27,-25 -41,-58 -41,-98 0,-39 13,-71 40,-96 27,-25 64,-37 112,-37 3,0 8,0 13,0l0 218c32,-2 57,-11 74,-27 17,-16 26,-37 26,-61 0,-18 -5,-34 -15,-47 -9,-12 -25,-23 -46,-30zm-79 162l0 -163c-25,2 -43,9 -56,19 -19,16 -28,36 -28,61 0,23 7,42 23,58 15,15 35,24 61,25z"/>
  <path id="2" class="fil2" d="M14645 8660l-404 0 0 -50 145 0c-27,-23 -40,-52 -40,-87 0,-22 4,-40 13,-56 8,-16 20,-28 35,-35 15,-6 37,-10 66,-10l185 0 0 50 -185 0c-25,0 -43,5 -54,16 -11,11 -17,26 -17,45 0,15 4,28 11,41 8,13 18,22 31,28 13,5 31,8 54,8l160 0 0 50z"/>
  <path id="3" class="fil2" d="M14550 8146l7 -51c30,8 53,23 70,44 16,22 24,50 24,84 0,43 -13,77 -39,102 -26,25 -63,37 -111,37 -49,0 -87,-12 -114,-38 -27,-25 -41,-58 -41,-98 0,-39 13,-71 40,-96 27,-25 64,-37 112,-37 3,0 8,0 13,0l0 218c32,-1 57,-11 74,-27 17,-16 26,-37 26,-61 0,-18 -5,-34 -15,-46 -9,-13 -25,-23 -46,-31zm-79 163l0 -164c-25,3 -43,9 -56,19 -19,16 -28,36 -28,62 0,22 7,41 23,57 15,15 35,24 61,26z"/>
  <path id="4" class="fil2" d="M14645 8032l-293 0 0 -45 42 0c-32,-21 -48,-52 -48,-93 0,-17 3,-34 10,-48 6,-15 14,-26 24,-34 11,-7 23,-12 37,-15 9,-2 25,-3 48,-3l180 0 0 50 -178 0c-20,0 -35,2 -45,6 -10,4 -18,10 -24,20 -6,10 -9,22 -9,35 0,21 7,39 20,54 13,16 39,23 76,23l160 0 0 50z"/>
  <path id="5" class="fil2" d="M14645 7561l-293 0 0 -44 42 0c-32,-22 -48,-53 -48,-93 0,-18 3,-34 10,-49 6,-15 14,-26 24,-33 11,-8 23,-13 37,-16 9,-2 25,-2 48,-2l180 0 0 49 -178 0c-20,0 -35,2 -45,6 -10,4 -18,11 -24,20 -6,10 -9,22 -9,35 0,21 7,39 20,55 13,15 39,23 76,23l160 0 0 49z"/>
  <path id="6" class="fil2" d="M14297 7247l-56 0 0 -49 56 0 0 49zm348 0l-293 0 0 -49 293 0 0 49z"/>
  <path id="7" class="fil2" d="M14538 6931l7 -49c33,5 59,19 78,41 19,22 28,49 28,81 0,40 -13,72 -39,96 -26,24 -63,37 -112,37 -32,0 -59,-6 -83,-16 -24,-11 -41,-27 -53,-48 -12,-21 -18,-45 -18,-70 0,-31 8,-58 24,-78 16,-20 39,-33 69,-39l7 48c-20,5 -34,13 -44,25 -10,12 -15,26 -15,42 0,25 9,46 26,61 18,16 47,24 85,24 40,0 68,-8 86,-23 18,-15 27,-35 27,-59 0,-19 -6,-36 -18,-49 -12,-13 -30,-21 -55,-24z"/>
  <path id="8" class="fil2" d="M14645 6840l-404 0 0 -50 145 0c-27,-23 -40,-52 -40,-87 0,-22 4,-41 13,-57 8,-15 20,-27 35,-34 15,-7 37,-10 66,-10l185 0 0 50 -185 0c-25,0 -43,5 -54,16 -11,10 -17,25 -17,45 0,15 4,28 11,41 8,13 18,22 31,28 13,5 31,8 54,8l160 0 0 50z"/>
  <path id="9" class="fil2" d="M14601 6418l44 -7c3,14 4,27 4,37 0,18 -3,32 -8,42 -6,10 -14,17 -23,21 -9,4 -29,6 -59,6l-168 0 0 37 -39 0 0 -37 -72 0 -30 -49 102 0 0 -50 39 0 0 50 171 0c14,0 24,-1 28,-3 4,-2 7,-5 9,-9 3,-3 4,-9 4,-16 0,-6 -1,-13 -2,-22z"/>
  <polyline class="fil3 str1" points="11669,4150 14050,4150 14050,11550 11250,11550 "/>
  <polygon class="fil5" points="11707,4302 11250,4150 11707,3997 "/>
  <path class="fil6" d="M13758 8601l-8 -49c19,-3 34,-10 45,-23 10,-13 16,-30 16,-53 0,-23 -5,-40 -14,-51 -9,-11 -20,-16 -33,-16 -11,0 -20,5 -26,15 -5,6 -10,23 -17,50 -9,37 -17,62 -24,76 -7,14 -16,25 -28,32 -11,7 -25,11 -39,11 -13,0 -25,-3 -36,-9 -11,-6 -20,-14 -28,-25 -5,-7 -10,-18 -14,-31 -4,-13 -6,-28 -6,-43 0,-23 3,-43 10,-60 6,-18 16,-31 27,-39 11,-8 26,-14 45,-17l7 49c-15,2 -27,8 -36,19 -8,10 -12,25 -12,44 0,23 3,39 11,49 7,10 16,15 26,15 7,0 13,-2 18,-6 5,-4 9,-11 13,-19 2,-5 6,-20 13,-44 9,-35 17,-60 23,-73 5,-14 14,-25 25,-33 12,-8 26,-12 43,-12 16,0 32,5 46,14 15,10 26,24 34,42 8,18 12,39 12,62 0,38 -8,67 -23,87 -16,20 -39,33 -70,38z"/>
  <path id="1" class="fil6" d="M13750 8099l7 -51c30,8 53,23 70,45 16,22 24,49 24,83 0,43 -13,77 -39,102 -26,25 -63,38 -111,38 -49,0 -87,-13 -114,-38 -28,-26 -41,-59 -41,-99 0,-39 13,-71 40,-96 26,-24 64,-37 112,-37 3,0 7,0 13,1l0 218c32,-2 57,-11 74,-28 17,-16 26,-36 26,-61 0,-18 -5,-33 -15,-46 -9,-13 -25,-23 -46,-31zm-79 163l0 -163c-25,2 -43,8 -56,19 -19,15 -28,36 -28,61 0,23 7,42 22,57 16,16 36,24 62,26z"/>
  <path id="2" class="fil6" d="M13845 7985l-404 0 0 -49 145 0c-27,-23 -40,-53 -40,-88 0,-21 4,-40 13,-56 8,-16 20,-27 35,-34 15,-7 37,-10 66,-10l185 0 0 49 -185 0c-25,0 -43,6 -54,16 -12,11 -17,26 -17,46 0,14 4,28 11,41 8,13 18,22 31,27 13,6 31,9 54,9l160 0 0 49z"/>
  <path id="3" class="fil6" d="M13750 7472l7 -52c30,8 53,23 70,45 16,22 24,50 24,84 0,42 -13,76 -39,101 -26,25 -63,38 -111,38 -49,0 -87,-13 -114,-38 -28,-26 -41,-58 -41,-99 0,-39 13,-71 40,-95 26,-25 64,-38 112,-38 3,0 7,1 13,1l0 218c32,-2 57,-11 74,-27 17,-17 26,-37 26,-61 0,-19 -5,-34 -15,-47 -9,-13 -25,-23 -46,-30zm-79 162l0 -163c-25,2 -43,8 -56,19 -19,15 -28,36 -28,61 0,23 7,42 22,57 16,16 36,24 62,26z"/>
  <path id="4" class="fil6" d="M13845 7357l-293 0 0 -44 42 0c-32,-22 -48,-53 -48,-93 0,-18 3,-34 9,-49 7,-15 15,-26 25,-33 11,-7 23,-13 37,-15 9,-2 25,-3 48,-3l180 0 0 49 -178 0c-20,0 -35,2 -45,6 -10,4 -18,11 -24,21 -6,9 -9,21 -9,34 0,21 7,39 20,55 13,15 39,23 76,23l160 0 0 49z"/>
  <path class="fil6" d="M6447 974l49 -8c3,20 11,35 23,45 13,11 31,16 53,16 23,0 40,-5 51,-14 11,-9 17,-20 17,-33 0,-11 -5,-20 -15,-26 -7,-4 -24,-10 -51,-17 -36,-9 -61,-17 -76,-24 -14,-6 -24,-16 -31,-27 -8,-12 -11,-25 -11,-40 0,-13 3,-25 9,-36 6,-11 14,-20 24,-27 8,-6 18,-11 31,-15 14,-4 28,-6 43,-6 23,0 43,4 61,10 17,7 30,16 38,27 8,12 14,27 17,46l-48 6c-3,-15 -9,-27 -19,-35 -11,-9 -26,-13 -45,-13 -23,0 -39,4 -49,11 -9,8 -14,17 -14,27 0,6 2,12 6,17 4,5 10,10 19,13 5,2 19,6 43,13 35,9 60,17 74,23 14,6 25,15 33,26 8,11 11,25 11,42 0,17 -4,32 -14,47 -10,14 -24,26 -42,34 -18,8 -39,12 -62,12 -38,0 -67,-8 -87,-24 -20,-16 -32,-39 -38,-70z"/>
  <path id="1" class="fil6" d="M6749 714l0 -57 50 0 0 57 -50 0zm0 347l0 -292 50 0 0 292 -50 0z"/>
  <path id="2" class="fil6" d="M7074 967l52 6c-8,30 -23,53 -45,70 -22,16 -50,25 -84,25 -42,0 -76,-14 -101,-40 -25,-26 -38,-63 -38,-111 0,-49 13,-87 38,-114 25,-27 58,-41 99,-41 39,0 71,14 95,40 25,27 37,64 37,113 0,2 0,7 0,13l-218 0c2,32 11,56 27,73 17,17 37,26 61,26 18,0 34,-5 47,-14 13,-10 23,-25 30,-46zm-162 -80l163 0c-2,-25 -9,-43 -19,-55 -15,-19 -36,-29 -61,-29 -23,0 -42,8 -57,23 -16,15 -24,35 -26,61z"/>
  <path id="3" class="fil6" d="M7188 1061l0 -404 50 0 0 146c23,-27 52,-41 87,-41 22,0 41,5 57,13 16,9 27,20 34,35 7,16 10,37 10,66l0 185 -50 0 0 -185c0,-25 -5,-43 -16,-54 -10,-11 -25,-17 -45,-17 -14,0 -28,4 -41,12 -13,7 -22,18 -28,31 -5,13 -8,31 -8,54l0 159 -50 0z"/>
  <path id="4" class="fil6" d="M7610 1017l7 44c-14,3 -26,4 -37,4 -18,0 -32,-2 -42,-8 -10,-6 -17,-13 -21,-23 -4,-9 -6,-29 -6,-58l0 -169 -37 0 0 -38 37 0 0 -73 50 -30 0 103 49 0 0 38 -49 0 0 171c0,15 0,24 2,28 2,4 5,7 9,10 4,2 9,3 17,3 5,0 12,-1 21,-2z"/>
  <path id="5" class="fil6" d="M8007 1025c-18,15 -36,26 -53,33 -17,6 -35,10 -55,10 -32,0 -57,-8 -74,-24 -17,-15 -26,-36 -26,-60 0,-14 3,-27 10,-39 6,-12 15,-21 26,-29 10,-7 22,-12 35,-16 10,-2 25,-5 45,-7 40,-5 69,-11 88,-17 0,-7 0,-11 0,-13 0,-20 -4,-34 -14,-43 -12,-11 -31,-17 -56,-17 -24,0 -41,5 -52,13 -11,8 -20,22 -25,43l-48 -6c4,-21 11,-38 21,-51 11,-13 25,-22 44,-29 20,-7 42,-11 67,-11 25,0 45,3 61,9 16,6 27,13 35,22 7,9 12,21 15,34 2,9 3,24 3,46l0 66c0,46 1,75 3,87 2,12 6,24 12,35l-52 0c-5,-10 -8,-22 -10,-36zm-4 -110c-18,7 -45,13 -81,18 -20,3 -35,7 -43,10 -9,4 -15,9 -20,16 -4,7 -7,15 -7,24 0,13 5,24 15,33 10,8 25,13 44,13 19,0 36,-4 51,-13 15,-8 26,-19 33,-34 6,-11 8,-28 8,-49l0 -18z"/>
  <polygon id="6" class="fil6" points="8129,1061 8129,657 8179,657 8179,1061 "/>
  <polygon id="7" class="fil6" points="8254,1061 8254,657 8304,657 8304,1061 "/>
  <path id="8" class="fil6" d="M8581 967l51 6c-8,30 -23,53 -45,70 -22,16 -50,25 -83,25 -43,0 -77,-14 -102,-40 -25,-26 -38,-63 -38,-111 0,-49 13,-87 38,-114 26,-27 58,-41 99,-41 39,0 71,14 95,40 25,27 38,64 38,113 0,2 0,7 -1,13l-218 0c2,32 11,56 27,73 17,17 37,26 62,26 18,0 33,-5 46,-14 13,-10 23,-25 31,-46zm-163 -80l163 0c-2,-25 -8,-43 -19,-55 -15,-19 -36,-29 -61,-29 -23,0 -42,8 -57,23 -16,15 -24,35 -26,61z"/>
  <path class="fil6" d="M8708 825l0 -56 57 0 0 56 -57 0zm0 236l0 -56 57 0 0 56c0,21 -4,38 -12,51 -7,13 -19,23 -35,30l-13 -22c10,-4 18,-11 23,-20 5,-9 8,-22 8,-39l-28 0z"/>
  <path class="fil6" d="M8989 974l49 -8c2,20 10,35 23,45 12,11 30,16 53,16 22,0 39,-5 51,-14 11,-9 16,-20 16,-33 0,-11 -5,-20 -15,-26 -7,-4 -24,-10 -51,-17 -36,-9 -61,-17 -75,-24 -14,-6 -25,-16 -32,-27 -7,-12 -11,-25 -11,-40 0,-13 3,-25 9,-36 6,-11 14,-20 24,-27 8,-6 19,-11 32,-15 13,-4 27,-6 43,-6 23,0 43,4 60,10 17,7 30,16 39,27 8,12 13,27 17,46l-49 6c-2,-15 -9,-27 -19,-35 -11,-9 -25,-13 -45,-13 -22,0 -39,4 -48,11 -10,8 -15,17 -15,27 0,6 2,12 6,17 4,5 10,10 19,13 5,2 20,6 44,13 35,9 59,17 73,23 14,6 25,15 33,26 8,11 12,25 12,42 0,17 -5,32 -15,47 -9,14 -23,26 -41,34 -19,8 -39,12 -62,12 -38,0 -67,-8 -87,-24 -20,-16 -33,-39 -38,-70z"/>
  <path id="1" class="fil6" d="M9490 967l52 6c-8,30 -23,53 -45,70 -22,16 -50,25 -84,25 -42,0 -76,-14 -101,-40 -25,-26 -38,-63 -38,-111 0,-49 13,-87 38,-114 25,-27 58,-41 99,-41 39,0 71,14 95,40 25,27 37,64 37,113 0,2 0,7 0,13l-218 0c2,32 11,56 27,73 17,17 37,26 61,26 18,0 34,-5 47,-14 13,-10 23,-25 30,-46zm-162 -80l163 0c-2,-25 -9,-43 -19,-55 -15,-19 -36,-29 -61,-29 -23,0 -42,8 -57,23 -16,15 -24,35 -26,61z"/>
  <path id="2" class="fil6" d="M9604 1061l0 -404 50 0 0 146c23,-27 52,-41 87,-41 22,0 41,5 57,13 16,9 27,20 34,35 7,16 10,37 10,66l0 185 -50 0 0 -185c0,-25 -5,-43 -16,-54 -10,-11 -25,-17 -45,-17 -14,0 -28,4 -41,12 -13,7 -22,18 -28,31 -5,13 -8,31 -8,54l0 159 -50 0z"/>
  <path id="3" class="fil6" d="M10118 967l52 6c-8,30 -23,53 -45,70 -22,16 -50,25 -84,25 -43,0 -76,-14 -101,-40 -25,-26 -38,-63 -38,-111 0,-49 13,-87 38,-114 25,-27 58,-41 98,-41 39,0 71,14 96,40 25,27 37,64 37,113 0,2 0,7 0,13l-218 0c2,32 11,56 27,73 16,17 37,26 61,26 18,0 34,-5 47,-14 13,-10 23,-25 30,-46zm-162 -80l163 0c-2,-25 -9,-43 -19,-55 -16,-19 -36,-29 -61,-29 -23,0 -42,8 -58,23 -15,15 -24,35 -25,61z"/>
  <path id="4" class="fil6" d="M10232 1061l0 -292 45 0 0 41c21,-32 52,-48 93,-48 18,0 34,3 49,10 14,6 25,14 33,25 7,10 12,22 15,36 2,10 3,26 3,49l0 179 -50 0 0 -178c0,-20 -2,-35 -5,-45 -4,-10 -11,-18 -21,-24 -10,-6 -21,-9 -34,-9 -22,0 -40,7 -55,20 -15,14 -23,39 -23,77l0 159 -50 0z"/>
  <path id="5" class="fil6" d="M10894 1025c-18,15 -36,26 -53,33 -17,6 -35,10 -55,10 -32,0 -57,-8 -74,-24 -17,-15 -26,-36 -26,-60 0,-14 3,-27 10,-39 7,-12 15,-21 26,-29 10,-7 22,-12 35,-16 10,-2 25,-5 45,-7 40,-5 69,-11 88,-17 0,-7 0,-11 0,-13 0,-20 -4,-34 -14,-43 -12,-11 -31,-17 -56,-17 -24,0 -41,5 -52,13 -11,8 -19,22 -25,43l-48 -6c4,-21 11,-38 21,-51 11,-13 25,-22 44,-29 20,-7 42,-11 67,-11 25,0 46,3 61,9 16,6 27,13 35,22 7,9 12,21 15,34 2,9 3,24 3,46l0 66c0,46 1,75 3,87 2,12 6,24 12,35l-52 0c-5,-10 -8,-22 -10,-36zm-4 -110c-18,7 -45,13 -81,18 -20,3 -35,7 -43,10 -9,4 -15,9 -20,16 -4,7 -7,15 -7,24 0,13 5,24 15,33 10,8 25,13 44,13 19,0 36,-4 51,-13 15,-8 26,-19 33,-34 6,-11 8,-28 8,-49l0 -18z"/>
  <polygon id="6" class="fil6" points="11016,1061 11016,657 11066,657 11066,1061 "/>
  <polygon id="7" class="fil6" points="11141,1061 11141,657 11191,657 11191,1061 "/>
  <path id="8" class="fil6" d="M11468 967l51 6c-8,30 -23,53 -45,70 -22,16 -49,25 -83,25 -43,0 -77,-14 -102,-40 -25,-26 -38,-63 -38,-111 0,-49 13,-87 38,-114 26,-27 58,-41 99,-41 39,0 71,14 96,40 24,27 37,64 37,113 0,2 0,7 -1,13l-218 0c2,32 11,56 28,73 16,17 36,26 61,26 18,0 33,-5 46,-14 13,-10 23,-25 31,-46zm-163 -80l163 0c-2,-25 -8,-43 -19,-55 -15,-19 -36,-29 -61,-29 -23,0 -42,8 -57,23 -16,15 -24,35 -26,61z"/>
  <polygon class="fil7" points="3150,11850 5550,11850 5550,10850 3150,10850 "/>
  <polygon class="fil3 str2" points="3150,11850 5550,11850 5550,10850 3150,10850 "/>
  <path class="fil4" d="M3283 11667l0 -606 227 0c46,0 84,6 112,18 28,13 49,32 65,57 16,26 24,52 24,80 0,26 -7,50 -21,73 -14,23 -35,42 -63,56 36,10 64,29 84,55 20,26 30,56 30,92 0,28 -6,54 -18,79 -12,24 -27,43 -45,56 -17,13 -40,23 -66,30 -27,7 -59,10 -98,10l-231 0zm80 -351l131 0c36,0 61,-2 77,-7 20,-6 35,-16 46,-30 10,-15 15,-32 15,-53 0,-21 -4,-38 -14,-54 -10,-15 -24,-26 -42,-31 -17,-6 -48,-9 -92,-9l-121 0 0 184zm0 280l151 0c26,0 44,-1 55,-3 18,-3 34,-8 46,-16 13,-8 23,-19 31,-34 8,-15 12,-32 12,-51 0,-23 -6,-43 -18,-59 -11,-17 -27,-29 -48,-36 -20,-7 -50,-10 -89,-10l-140 0 0 209z"/>
  <path id="1" class="fil4" d="M4283 11455l80 20c-17,66 -47,116 -91,151 -43,34 -97,52 -160,52 -65,0 -118,-14 -159,-40 -41,-27 -72,-65 -93,-116 -21,-50 -32,-104 -32,-162 0,-63 12,-118 36,-165 24,-47 58,-83 103,-107 44,-25 93,-37 147,-37 60,0 111,15 152,46 42,31 71,74 87,130l-79 19c-14,-44 -34,-76 -61,-96 -27,-20 -60,-30 -101,-30 -46,0 -85,11 -116,33 -31,22 -54,52 -66,90 -13,38 -19,76 -19,116 0,52 7,97 22,135 15,39 39,67 70,86 32,19 66,29 103,29 45,0 82,-13 113,-39 32,-26 53,-64 64,-115z"/>
  <path id="2" class="fil4" d="M4894 11455l80 20c-16,66 -47,116 -90,151 -44,34 -97,52 -160,52 -65,0 -118,-14 -159,-40 -41,-27 -72,-65 -94,-116 -21,-50 -32,-104 -32,-162 0,-63 12,-118 36,-165 25,-47 59,-83 103,-107 45,-25 94,-37 147,-37 61,0 112,15 153,46 41,31 70,74 86,130l-78 19c-14,-44 -35,-76 -62,-96 -26,-20 -60,-30 -100,-30 -47,0 -86,11 -117,33 -31,22 -53,52 -66,90 -12,38 -19,76 -19,116 0,52 8,97 23,135 15,39 38,67 70,86 31,19 65,29 102,29 45,0 83,-13 114,-39 31,-26 52,-64 63,-115z"/>
  <path class="fil4" d="M5323 11667l-75 0 0 -474c-17,17 -41,34 -70,51 -29,17 -55,30 -79,39l0 -72c42,-20 78,-43 110,-71 31,-28 53,-55 66,-81l48 0 0 608z"/>
  <polygon class="fil7" points="6910,11850 9310,11850 9310,10850 6910,10850 "/>
  <polygon class="fil3 str2" points="6910,11850 9310,11850 9310,10850 6910,10850 "/>
  <path class="fil4" d="M7043 11667l0 -606 227 0c46,0 83,6 111,18 28,13 50,32 66,57 16,26 24,52 24,80 0,26 -7,50 -21,73 -14,23 -35,42 -64,56 37,10 65,29 85,55 20,26 30,56 30,92 0,28 -6,54 -18,79 -12,24 -27,43 -45,56 -18,13 -40,23 -66,30 -27,7 -60,10 -98,10l-231 0zm80 -351l131 0c36,0 61,-2 77,-7 20,-6 35,-16 46,-30 10,-15 15,-32 15,-53 0,-21 -5,-38 -14,-54 -10,-15 -24,-26 -42,-31 -18,-6 -48,-9 -92,-9l-121 0 0 184zm0 280l151 0c26,0 44,-1 55,-3 18,-3 34,-8 46,-16 12,-8 23,-19 31,-34 8,-15 12,-32 12,-51 0,-23 -6,-43 -18,-59 -11,-17 -28,-29 -48,-36 -21,-7 -50,-10 -89,-10l-140 0 0 209z"/>
  <path id="1" class="fil4" d="M8042 11455l81 20c-17,66 -47,116 -91,151 -43,34 -97,52 -160,52 -65,0 -118,-14 -159,-40 -41,-27 -72,-65 -93,-116 -21,-50 -32,-104 -32,-162 0,-63 12,-118 36,-165 24,-47 58,-83 103,-107 44,-25 93,-37 147,-37 60,0 111,15 152,46 42,31 71,74 87,130l-79 19c-14,-44 -34,-76 -61,-96 -27,-20 -60,-30 -101,-30 -46,0 -85,11 -116,33 -32,22 -54,52 -66,90 -13,38 -19,76 -19,116 0,52 7,97 22,135 15,39 38,67 70,86 32,19 66,29 103,29 45,0 82,-13 113,-39 31,-26 52,-64 63,-115z"/>
  <path id="2" class="fil4" d="M8654 11455l80 20c-16,66 -47,116 -90,151 -44,34 -97,52 -160,52 -65,0 -119,-14 -159,-40 -41,-27 -72,-65 -94,-116 -21,-50 -32,-104 -32,-162 0,-63 12,-118 36,-165 25,-47 59,-83 103,-107 45,-25 94,-37 147,-37 61,0 112,15 153,46 41,31 70,74 86,130l-79 19c-14,-44 -34,-76 -61,-96 -26,-20 -60,-30 -100,-30 -47,0 -86,11 -117,33 -31,22 -53,52 -66,90 -12,38 -19,76 -19,116 0,52 8,97 23,135 15,39 38,67 70,86 31,19 65,29 102,29 45,0 83,-13 114,-39 31,-26 52,-64 63,-115z"/>
  <path class="fil4" d="M9194 11596l0 71 -401 0c0,-18 3,-35 9,-51 10,-28 27,-55 49,-81 23,-26 56,-57 98,-91 65,-54 110,-97 133,-129 24,-31 35,-61 35,-90 0,-29 -10,-54 -31,-74 -21,-20 -49,-31 -83,-31 -36,0 -65,11 -86,33 -22,21 -33,51 -33,88l-76 -7c5,-57 25,-101 59,-131 34,-29 80,-44 138,-44 58,0 104,16 138,48 34,32 51,72 51,120 0,24 -5,48 -15,72 -10,23 -27,48 -50,74 -23,26 -61,61 -114,107 -45,37 -74,62 -87,76 -12,13 -23,27 -31,40l297 0z"/>
  <polygon class="fil7" points="3150,8350 5550,8350 5550,7350 3150,7350 "/>
  <polygon class="fil3 str2" points="3150,8350 5550,8350 5550,7350 3150,7350 "/>
  <path class="fil4" d="M4000 7954l80 21c-16,66 -46,116 -90,150 -44,35 -97,52 -160,52 -65,0 -118,-13 -159,-40 -41,-26 -72,-65 -94,-115 -21,-51 -32,-105 -32,-163 0,-63 12,-118 37,-165 24,-47 58,-82 102,-107 45,-24 94,-36 147,-36 61,0 112,15 153,46 41,31 70,74 86,130l-78 19c-14,-44 -35,-76 -62,-97 -26,-20 -60,-30 -100,-30 -47,0 -86,11 -117,34 -31,22 -53,52 -66,90 -12,37 -19,76 -19,116 0,52 8,97 23,135 15,38 38,67 70,86 31,19 65,29 102,29 45,0 83,-13 114,-39 31,-26 52,-64 63,-116z"/>
  <path id="1" class="fil4" d="M4611 7954l81 21c-17,66 -47,116 -91,150 -43,35 -97,52 -160,52 -65,0 -118,-13 -159,-40 -41,-26 -72,-65 -93,-115 -21,-51 -32,-105 -32,-163 0,-63 12,-118 36,-165 24,-47 58,-82 103,-107 44,-24 93,-36 147,-36 60,0 111,15 152,46 42,31 71,74 87,130l-79 19c-14,-44 -34,-76 -61,-97 -27,-20 -60,-30 -101,-30 -46,0 -85,11 -116,34 -32,22 -54,52 -66,90 -13,37 -19,76 -19,116 0,52 7,97 22,135 15,38 38,67 70,86 32,19 66,29 103,29 45,0 82,-13 113,-39 31,-26 52,-64 63,-116z"/>
  <path class="fil4" d="M5041 8167l-75 0 0 -474c-18,17 -41,34 -70,51 -29,17 -56,30 -79,38l0 -72c42,-19 78,-43 109,-71 32,-27 54,-54 67,-81l48 0 0 609z"/>
  <polygon class="fil7" points="6910,8350 9310,8350 9310,7350 6910,7350 "/>
  <polygon class="fil3 str2" points="6910,8350 9310,8350 9310,7350 6910,7350 "/>
  <path class="fil4" d="M7760 7954l80 21c-16,66 -47,116 -90,150 -44,35 -97,52 -160,52 -65,0 -118,-13 -159,-40 -41,-26 -72,-65 -94,-115 -21,-51 -32,-105 -32,-163 0,-63 12,-118 36,-165 25,-47 59,-82 103,-107 45,-24 94,-36 147,-36 61,0 112,15 153,46 41,31 70,74 86,130l-79 19c-13,-44 -34,-76 -61,-97 -26,-20 -60,-30 -100,-30 -47,0 -86,11 -117,34 -31,22 -53,52 -66,90 -12,37 -19,76 -19,116 0,52 8,97 23,135 15,38 38,67 70,86 31,19 65,29 102,29 45,0 83,-13 114,-39 31,-26 52,-64 63,-116z"/>
  <path id="1" class="fil4" d="M8371 7954l81 21c-17,66 -47,116 -91,150 -43,35 -97,52 -160,52 -65,0 -118,-13 -159,-40 -41,-26 -72,-65 -93,-115 -22,-51 -32,-105 -32,-163 0,-63 12,-118 36,-165 24,-47 58,-82 103,-107 44,-24 93,-36 146,-36 61,0 112,15 153,46 42,31 70,74 87,130l-79 19c-14,-44 -35,-76 -61,-97 -27,-20 -60,-30 -101,-30 -46,0 -85,11 -116,34 -32,22 -54,52 -66,90 -13,37 -19,76 -19,116 0,52 7,97 22,135 15,38 38,67 70,86 32,19 66,29 103,29 44,0 82,-13 113,-39 31,-26 52,-64 63,-116z"/>
  <path class="fil4" d="M8912 8096l0 71 -402 0c0,-18 3,-35 9,-52 10,-27 27,-54 50,-80 22,-27 55,-57 97,-92 66,-54 110,-97 133,-128 24,-32 36,-62 36,-90 0,-29 -11,-54 -32,-75 -21,-20 -49,-30 -83,-30 -36,0 -65,11 -86,32 -22,22 -33,51 -33,89l-76 -7c5,-57 25,-101 59,-131 34,-30 80,-45 138,-45 58,0 104,16 138,49 34,32 51,72 51,120 0,24 -5,48 -15,71 -10,24 -27,49 -50,75 -23,25 -61,61 -114,106 -45,38 -74,63 -87,77 -12,13 -23,26 -31,40l298 0z"/>
  <polyline class="fil3 str1" points="7710,5269 7710,5849 4710,5849 4710,4850 "/>
  <polygon class="fil5" points="7557,5307 7710,4850 7862,5307 "/>
  <path class="fil6" d="M5632 5557l49 -8c2,20 10,35 23,46 12,10 30,15 53,15 22,0 39,-4 50,-14 11,-9 17,-20 17,-32 0,-11 -5,-20 -15,-27 -7,-4 -24,-10 -51,-17 -36,-9 -61,-17 -75,-23 -14,-7 -25,-16 -32,-28 -7,-12 -11,-25 -11,-39 0,-13 3,-25 9,-36 6,-12 14,-21 24,-28 8,-6 19,-11 32,-14 13,-4 27,-6 43,-6 23,0 43,3 60,10 17,6 30,15 39,26 8,12 13,27 17,46l-49 7c-2,-15 -9,-27 -19,-36 -11,-9 -25,-13 -45,-13 -22,0 -39,4 -48,12 -10,7 -15,16 -15,26 0,6 2,12 6,17 4,6 10,10 19,14 5,1 20,6 44,12 35,10 59,17 73,23 14,6 25,15 33,26 8,12 12,26 12,43 0,16 -5,32 -15,46 -9,15 -23,26 -41,34 -19,8 -39,12 -62,12 -38,0 -67,-8 -87,-24 -20,-15 -33,-39 -38,-70z"/>
  <path id="1" class="fil6" d="M5934 5297l0 -56 49 0 0 56 -49 0zm0 348l0 -293 49 0 0 293 -49 0z"/>
  <path id="2" class="fil6" d="M6259 5550l51 7c-8,30 -23,53 -45,69 -21,17 -49,25 -83,25 -43,0 -77,-13 -102,-40 -25,-26 -37,-63 -37,-110 0,-49 12,-88 37,-115 26,-27 59,-40 99,-40 39,0 71,13 96,39 24,27 37,65 37,113 0,3 0,7 0,13l-219 0c2,32 11,57 28,74 16,17 36,25 61,25 18,0 33,-4 46,-14 13,-10 23,-25 31,-46zm-163 -80l163 0c-2,-24 -8,-43 -18,-55 -16,-19 -37,-29 -62,-29 -22,0 -42,8 -57,23 -16,15 -24,36 -26,61z"/>
  <path id="3" class="fil6" d="M6373 5645l0 -404 50 0 0 145c23,-27 52,-40 87,-40 21,0 40,4 56,12 16,9 27,21 34,36 7,15 10,37 10,65l0 186 -49 0 0 -185c0,-25 -6,-43 -16,-55 -11,-11 -26,-17 -46,-17 -14,0 -28,4 -41,12 -13,7 -22,18 -27,31 -6,13 -8,31 -8,54l0 160 -50 0z"/>
  <path id="4" class="fil6" d="M6795 5600l6 44c-14,3 -26,5 -37,5 -18,0 -32,-3 -42,-9 -10,-6 -17,-13 -21,-22 -4,-10 -6,-29 -6,-59l0 -169 -36 0 0 -38 36 0 0 -73 50 -29 0 102 50 0 0 38 -50 0 0 172c0,14 1,23 3,27 1,4 4,7 8,10 4,2 10,3 17,3 5,0 13,0 22,-2z"/>
  <polyline class="fil3 str1" points="8510,4850 8510,6649 3910,6649 3910,5269 "/>
  <polygon class="fil5" points="3758,5307 3910,4850 4063,5307 "/>
  <path class="fil6" d="M5632 6357l49 -8c2,20 10,35 23,46 12,10 30,15 53,15 22,0 39,-4 50,-14 11,-9 17,-20 17,-32 0,-11 -5,-20 -15,-27 -7,-4 -24,-10 -51,-16 -36,-10 -61,-17 -75,-24 -14,-7 -25,-16 -32,-28 -7,-12 -11,-25 -11,-39 0,-13 3,-25 9,-36 6,-11 14,-21 24,-28 8,-6 19,-10 32,-14 13,-4 27,-6 43,-6 23,0 43,3 60,10 17,6 30,15 39,27 8,11 13,26 17,45l-49 7c-2,-15 -9,-27 -19,-36 -11,-8 -25,-13 -45,-13 -22,0 -39,4 -48,12 -10,7 -15,16 -15,26 0,6 2,12 6,17 4,6 10,10 19,14 5,2 20,6 44,12 35,10 59,17 73,23 14,6 25,15 33,26 8,12 12,26 12,43 0,16 -5,32 -15,46 -9,15 -23,26 -41,34 -19,8 -39,12 -62,12 -38,0 -67,-8 -87,-24 -20,-15 -33,-39 -38,-70z"/>
  <path id="1" class="fil6" d="M5934 6097l0 -56 49 0 0 56 -49 0zm0 348l0 -293 49 0 0 293 -49 0z"/>
  <path id="2" class="fil6" d="M6259 6350l51 7c-8,30 -23,53 -45,69 -21,17 -49,25 -83,25 -43,0 -77,-13 -102,-39 -25,-27 -37,-64 -37,-111 0,-49 12,-87 37,-115 26,-27 59,-40 99,-40 39,0 71,13 96,40 24,26 37,64 37,112 0,3 0,7 0,13l-219 0c2,32 11,57 28,74 16,17 36,25 61,25 18,0 33,-4 46,-14 13,-10 23,-25 31,-46zm-163 -80l163 0c-2,-24 -8,-43 -18,-55 -16,-19 -37,-29 -62,-29 -22,0 -42,8 -57,23 -16,15 -24,36 -26,61z"/>
  <path id="3" class="fil6" d="M6373 6445l0 -404 50 0 0 145c23,-27 52,-40 87,-40 21,0 40,4 56,12 16,9 27,21 34,36 7,15 10,37 10,65l0 186 -49 0 0 -185c0,-25 -6,-43 -16,-54 -11,-12 -26,-17 -46,-17 -14,0 -28,3 -41,11 -13,8 -22,18 -27,31 -6,13 -8,31 -8,54l0 160 -50 0z"/>
  <path id="4" class="fil6" d="M6795 6401l6 43c-14,3 -26,5 -37,5 -18,0 -32,-3 -42,-9 -10,-6 -17,-13 -21,-22 -4,-10 -6,-29 -6,-59l0 -169 -36 0 0 -38 36 0 0 -73 50 -29 0 102 50 0 0 38 -50 0 0 172c0,14 1,23 3,27 1,4 4,7 8,10 4,2 10,4 17,4 5,0 13,-1 22,-2z"/>
  <path class="fil4" d="M6168 4313l0 -85 84 0 0 85 -84 0zm0 355l0 -85 84 0 0 85c0,31 -5,56 -16,75 -11,19 -29,34 -53,45l-20 -32c16,-7 27,-17 34,-31 8,-13 12,-32 13,-57l-42 0z"/>
  <polygon class="fil7" points="3150,4850 5550,4850 5550,3850 3150,3850 "/>
  <polygon class="fil3 str2" points="3150,4850 5550,4850 5550,3850 3150,3850 "/>
  <path class="fil4" d="M3596 4668l232 -607 88 0 247 607 -91 0 -70 -184 -256 0 -65 184 -85 0zm174 -249l207 0 -64 -168c-19,-52 -33,-94 -43,-127 -8,39 -20,78 -33,117l-67 178z"/>
  <path id="1" class="fil4" d="M4218 4668l0 -440 66 0 0 62c33,-47 79,-71 140,-71 26,0 51,5 73,14 22,10 39,22 50,37 11,16 19,34 23,55 3,14 4,38 4,73l0 270 -75 0 0 -267c0,-31 -2,-54 -8,-68 -6,-15 -16,-27 -31,-36 -15,-9 -32,-14 -52,-14 -31,0 -59,10 -82,30 -23,20 -34,59 -34,115l0 240 -74 0z"/>
  <path class="fil4" d="M4948 4668l-75 0 0 -475c-18,17 -41,34 -70,51 -30,18 -56,30 -79,39l0 -72c42,-20 78,-43 109,-71 31,-28 54,-55 67,-81l48 0 0 609z"/>
  <polygon class="fil7" points="6910,4850 9310,4850 9310,3850 6910,3850 "/>
  <polygon class="fil3 str2" points="6910,4850 9310,4850 9310,3850 6910,3850 "/>
  <path class="fil4" d="M7356 4668l232 -607 88 0 247 607 -91 0 -70 -184 -256 0 -65 184 -85 0zm174 -249l207 0 -64 -168c-19,-52 -33,-94 -43,-127 -8,39 -20,78 -34,117l-66 178z"/>
  <path id="1" class="fil4" d="M7977 4668l0 -440 67 0 0 62c32,-47 79,-71 140,-71 26,0 51,5 73,14 22,10 39,22 50,37 11,16 18,34 23,55 2,14 4,38 4,73l0 270 -75 0 0 -267c0,-31 -2,-54 -8,-68 -6,-15 -16,-27 -31,-36 -15,-9 -32,-14 -52,-14 -31,0 -59,10 -82,30 -23,20 -34,59 -34,115l0 240 -75 0z"/>
  <path class="fil4" d="M8818 4596l0 72 -401 0c0,-18 3,-36 9,-52 10,-27 27,-54 49,-81 23,-26 56,-57 98,-91 65,-54 110,-97 133,-129 24,-31 35,-61 35,-89 0,-30 -10,-55 -31,-75 -22,-20 -49,-30 -83,-30 -36,0 -65,10 -87,32 -21,21 -32,51 -32,89l-76 -8c5,-57 24,-100 59,-130 34,-30 80,-45 137,-45 59,0 105,16 139,48 34,32 51,73 51,120 0,25 -5,48 -15,72 -10,23 -27,48 -50,74 -23,26 -61,62 -114,107 -45,37 -74,63 -87,76 -12,13 -23,27 -31,40l297 0z"/>
 </g>
</svg>
